# xmcd
# 
# Track frame offsets:
#     150
#     18222
#     33411
#     59394
#     90084
#     115896
#     126652
#     148965
#     174112
#     186090
#     212305
#     234223
#     254270
# 
# Disc length: 3660
# 
# Revision: 1
# Processed by: cddbd v1.5.2PL0 Copyright (c) Steve Scherf et al.
# Submitted via: fre:ac v1.0.27
# 
DISCID=a50e4a0d
DTITLE=The Matt Schofield Trio - Ear to the Ground
DYEAR=2007
DGENRE=Blues
TTITLE0=Pack it Up
TTITLE1=Troublemaker
TTITLE2=Ear to the Ground
TTITLE3=Heart Don't Need a Compass
TTITLE4=Once in a While
TTITLE5=Room at the Back
TTITLE6=Someone
TTITLE7=Searchin'
TTITLE8=Move Along
TTITLE9=Cookie Jar
TTITLE10=When It All Comes Down
TTITLE11=Ear to the Ground (Radio Edit)
TTITLE12=Searchin' (Radio Edit)
EXTD=
EXTT0=
EXTT1=
EXTT2=
EXTT3=
EXTT4=
EXTT5=
EXTT6=
EXTT7=
EXTT8=
EXTT9=
EXTT10=
EXTT11=
EXTT12=
PLAYORDER=
